<?xml version="1.0" encoding="UTF-8"?>
<svg id="Layer_1" data-name="Layer 1" xmlns="http://www.w3.org/2000/svg" viewBox="0 0 2340.75 2278.57">
  <defs>
    <style>
      .cls-1 {
        fill: #e57e25;
      }

      .cls-2 {
        fill: #010101;
      }

      .cls-3 {
        fill: #fdfefd;
      }

      .cls-4 {
        fill: #fff;
      }
    </style>
  </defs>
  <g>
    <path d="M1461.19,252.44l45.33-183.52,7.85-8.45c4.64-.67,72.91,17.25,78.01,20.32,7.05,4.25,7.06,5.63,7.07,14.14-29.87,94.47-47.59,199.54-79.73,292.49-3.15,9.11-5.23,20.32-17.45,20.15-8.16-.12-80.12-19.4-87.09-23.6-8.99-5.41-14.06-15.39-16.76-25.23l-51.2-202.25-51.66,185.23c-8.44,11.21-81.01-9.69-83.54-13.19-3.61-5-3.23-16.61-1.97-22.79l74.31-288.65,5.88-9.13c8.43-4.28,56.52,8.73,69.07,12.01,29.53,7.71,35.85,3.01,46.47,34.51,20,59.29,31.31,126.92,49.34,187.61,1.2,4.04.26,9.31,6.1,10.37Z"/>
    <path d="M310.55,527.32c24.43,24.52,67.12,43.08,100.9,29.54,28.65-11.48,59.5-60.89,37.51-88.41-10.42,7.3-41.97,47.2-51.14,48.09-2.89.28-4.77-.45-7.29-1.63-2.41-1.13-38.67-31.78-40.75-34.28-2.88-3.47-4.92-5.56-4.44-10.58l112.59-114.89c5.06,1.23,8.3,5.11,12.13,8.2,13.47,10.86,61.07,60.86,71.96,74.98,13.66,17.7,10.28,33.28,6.68,54.8-23.14,138.2-178.06,217.27-293.21,120.76-130.67-109.51-45.44-328.08,124.46-310.42,10.17,1.06,22.68,1.43,22.69,13.31,0,7.1-20.62,75.98-24.02,78.25-10.19,3.22-20.88.32-31.28,1.71-66.9,8.91-81.58,85.59-36.76,130.58Z"/>
    <path d="M744.4,279.38l107.51,74.17c.88,3.49-.53,7.76-2.42,10.74-2.16,3.42-65.4,34.9-72.03,36.71-17.94,4.89-26.26-5.01-40.02-14.15-18.08-12-54.66-45.56-71.24-51.98-8.28-3.21-17.73,3.76-23.48,8.99,6.09,16.61,46.88,81.71,43.43,94.64-1.33,4.98-5.72,8.5-9.7,11.44-5.55,4.11-52.38,28.92-58.84,31.16-13.72,4.76-15.11,1.72-21.83-9.56-35.09-88.4-95.52-175.81-129.87-263.02-4.9-12.43-11.76-22.81,3.4-31.71,78.87-32.27,197.2-126.5,272.15-39.91,31.11,35.94,35.14,87.55,11.44,128.55-3.03,5.23-9.56,7.66-8.49,13.93ZM606.71,273.22c30.7-6.43,91.35-34.84,56.72-73.29-27.56-30.61-58.05,1.72-87.01,10.58l30.29,62.71Z"/>
    <path d="M980.71,1.39c249.38-26.85,264.64,344.43,23.15,347.25-227.21,2.65-232.88-324.67-23.15-347.25ZM989.6,85.27c-94.73,13.68-83.14,188.37,25.89,175.83,99.92-11.5,84.72-191.8-25.89-175.83Z"/>
    <path d="M1830.89,325.22c-1.96,1.84-6.47,12.93-6.66,15.9-1.12,17.16,53.42,79.18,61.52,109.15,14.71,54.46-13.61,103.67-67.56,118.66-76.87,21.35-156.09-44.95-185.58-111.46-5.4-12.17-16.63-35.84-8.15-46.29,7.1-8.74,64.09-26.8,74.68-23.33,7.4,2.42,11.07,27.69,14.73,36.34,8.73,20.59,33.21,62.48,57.77,62.48,11.5,0,24.69-7.15,25.46-19.99,1.13-18.55-64.88-84.8-68.96-125.72-2.67-26.82,8.73-55.88,25.76-76.26,68.83-82.37,210.38,12.73,222.41,100.99,6.24,45.77-11.96,37.39-42.01,37.39-16.35,0-40.73,6.99-44.11-11.25-1.83-9.9,1.45-20.27-1.48-31.51-4.9-18.74-39.18-52.63-57.82-35.1Z"/>
    <path d="M1550.6,1887.81c57.87-4.57,95.95,63.81,63.64,111.75,84.73.66,100.09,98.42,35.73,146.73-17.34,13.02-107.51,54.57-128.68,60.3-7.79,2.11-15.24,3.74-18.75-5.45l-104.47-246.56c.66-7.07,7.76-8.33,13.13-11.07,25.52-13.03,115.31-53.8,139.4-55.7ZM1550.33,1965.95c-17.52-14.13-38.26,10.39-56.13,11.12l15.04,41.96c19.35-4.25,70.18-29.62,41.09-53.08ZM1551.23,2121.01c23.76-5.37,87.54-30.42,49.5-60.03-19.07-14.85-45.88,6.29-66.27,11.9l16.77,48.13Z"/>
    <path d="M476.73,1815.85c128.53-17.64,213.38,124.07,133.94,232.92-108.61,148.82-336.5-10.92-227.42-170.44,20.88-30.53,56.15-57.36,93.48-62.48ZM448.49,2014.98c78.34,72.79,167.52-82.46,81.51-118.99-70.76-30.05-128.88,74.98-81.51,118.99Z"/>
    <path d="M704.28,1917.6c108.92,29.65,230.58,65.08,186.22,207.05-38.58,123.46-162.58,106.94-257.1,60.84-18.51-9.03-11.53-18.16-7.46-34.48,15.88-63.74,41.79-143.84,63.67-206.27,2.45-7,6.81-25.65,14.68-27.15ZM750.53,2007.11l-35.93,130.01c47.57,27.69,91.1,5.93,103.35-46,12.54-53.16-18.85-76.39-67.42-84.01Z"/>
    <path d="M1104.3,2171.99h-43.49c-.53,0-7.5-6.97-7.5-7.5v-47.99c0-.83,3.07-7,5.06-7.6,22.03-2.16,43.79,1.97,65.3,3.23,11.8.69,48.33-3.95,54.13,5.83l-5.37,111.67c-54.72,72.1-198.89,64.53-236.63-22.61-50.39-116.33,31.07-244.3,163.1-214.09,19.26,4.41,74.77,33.18,74.33,54.67-.13,6.46-43.15,32.39-50.12,33.89-17.01,3.66-19.8-12.74-33.79-19-26.84-12.01-62.66-.73-76.66,25.37-17.1,31.89-16.5,100.04,21.77,116.5,29.51,12.69,75.5,9.96,69.86-32.37Z"/>
    <path d="M308.45,1590.74c11.06-1.1,46.5,47.32,54.48,58.42,52.98,73.68,73.67,146.02-7.02,210.84-105.16,84.48-194.38-6.41-248.09-96.68-7.08-11.9-12.54-20.25.95-30.5l199.68-142.07ZM192.52,1764.15c-1.15,1.63,19.65,30.03,22.43,32.99,49.6,53,137.86-1.64,120.19-69.22-2.63-10.05-21.59-41.05-32.41-38.39l-110.2,74.63Z"/>
    <path d="M1724.11,1758.71c4.53-.44,15.21,6.4,19.95,8.96,62,33.54,137.47,81.89,196.78,121.14,7.75,5.13,32.7,19.02,33.41,26.88.68,4.77-1.71,7.28-4.45,10.59-3.21,3.89-51.46,43.37-54.85,44.32-14.71,4.13-44.51-31.64-51.89-28.19l-62.45,54.55c2.02,13.49,23.61,42.74,16.03,55.03-1.76,2.84-50.84,38.8-54.22,39.1-7.15.64-11.1-3.94-13.86-10l-98.34-258.61c.13-7.56,65.81-63,73.88-63.78ZM1743.1,1851.12l-5.93,1.43,43.43,91.47,37.48-34.47c-18.37-14.59-36.9-29.3-55.99-42.92-6.9-4.92-18.54-7.82-18.99-15.51Z"/>
    <path d="M1379.52,2024.32l-95.28,21.75,8.85,37.72c5.57,4.28,67.89-15.72,81.27-12.47,14.65,3.55,20.91,41.8,17.28,53.62-4.45,14.54-70.89,17.36-86.1,23.33l5.91,41.5c5.55,4.76,80.71-19.1,96.67-14.21,9.14,2.8,19.48,53.18,15.68,59.46-1.89,3.12-6.63,4.05-9.92,5.12-29.12,9.51-114.88,24.6-146.49,27.46-6.45.58-13.08,1.66-19.31-.97l-46.32-268.63,158.32-35.38c4.89,1.11,8.11,2.95,10.48,7.58,4.07,7.93,15.51,47.85,8.95,54.11Z"/>
    <path d="M2136.03,1545.15c8.53-19.43,28.66-93.38,42.11-103.4,12.75-9.49,62.63,11.28,62.13,26.39l-64.56,169.13c-4.58,9.29-15.47,11.99-24.66,8.43-76.16-35.29-160.7-60.74-235.95-97.05-13.25-6.4-20.37-5.85-19.14-22.99.65-9.03,27.1-62.68,34.58-63.47l205.49,82.96Z"/>
    <path d="M1829.22,1635.5c3.44-1.02,6.75-.83,9.84,1.1l169.52,127.36c6.9.08,59.2-89.95,69.61-92.53,6.45-1.6,51.97,32.57,51.38,39.6l-101.52,147.49c-3.87,5.47-8.87,9.32-15.78,7.09l-221.35-162.82c-4.46-5.19-3.04-10.14-.52-15.91,2.15-4.9,35.73-50.47,38.82-51.39Z"/>
    <path d="M1664.6,210.97c-.66-1.13-9.96-4.34-14.03-11.43-31.19-54.37,49.02-100.4,80.13-47.13,33.14,56.74-44.16,135.49-102.24,114.23-21.11-7.73-23.57-27.56-2.45-33.87,7.17-2.14,50.93-.63,38.59-21.81Z"/>
  </g>
  <path class="cls-2" d="M2336.85,938.86c-13.32-63.79-69.04-110.91-123.81-140.64-58.91-31.97-165.98-64.45-214.72-.24-9.84,12.96-16.47,36.86-29.6,45.56-7.47,4.92-18.33,7.65-26.57,12.48-42.65,24.86-54.41,78.88-47.78,124.8,5.49,38.06,24.35,71.05,48.71,99.94-23.63,21.71-54.83,31.64-85.24,39.89,1.62-140.52-42.59-280.85-126.66-392.85-117.06-155.93-303.86-249.63-499.41-254.4-14.37-.36-29.06-.36-43.4,0-218.35,5.22-425.69,124.23-532.28,314.72-2.07,1.32-37.55-5.16-43.91-5.52-78.07-4.8-159.95,21.15-227.23,58.97-12.15,6.84-46.58,32.48-56.81,34.37-9,1.65-37.43-7.41-49.88-8.19-68.44-4.38-83.74,30.08-135.24,55.73-11.94,5.94-25.04,8.25-37.16,13.44-53.24,22.73-120.84,81.82-98.83,146.94,3.96,11.67,18.42,23.78,20.01,30.59,2.04,8.79-2.43,28.16-.99,40.01,2.64,21.53,24.5,47.93,44.99,54.74,8.37,2.76,22.34,3.18,29.12,7.02,4.98,2.82,6.51,8.94,10.32,12.78,7.74,7.8,23.99,14.61,34.88,15.75,65.23,6.69,100.66-69.49,148.73-99.52-.66,26.15.27,59.96,25.43,75.7,36.8,23.06,83.2-5.43,105.16-36.23,21.92-30.8,32.78-83.71,30.62-121.08-.51-8.7-7.17-38.3-3.63-44.12,19.68-11.28,41.03-19.83,63.2-24.98,15.42-3.6,33.71-6.3,49.52-6.84,2.82-.09,10.2-.69,11.76,1.47-2.07,16.71-6,33.32-7.89,50.06-14.37,128.04,16.53,242.64,72.91,355.96v5.82l-29.69,15.84c1.74-18.75-13.68-37.31-15.75-54.32-1.95-15.75,1.08-34.28-.18-50.39-6.75-84.94-75.1-115.59-149.87-81.91-63.79,28.76-166.85,136.26-188.87,202.84-32.6,98.62,32.36,172.64,133.8,136.56,21.03-7.47,37.34-22.25,58.85-27.02,9.12,23.57,29.6,50.48,52.1,62.84,4.2,2.31,20.1,9.36,23.87,9.36h60.02c-27.38,34.85-58.22,74.68-53.48,122.07,2.46,24.71,25.25,48.32,46.73,58.79,8.79,4.26,18.54,5.49,26.99,9.84h26.03c17.85-4.38,34.19-8.73,51.11-16.08,30.47-13.29,57.47-33.14,85.81-50.12,80.17,29.51,165.29,6.03,234.03-39.26,254.25,97.36,553.01,13.17,720.61-198.7,42.56-53.81,70.84-114.3,101.65-175.13,68.98-10.05,136.26-26.99,197.74-60.29,37.28-20.19,65.86-47.48,99.67-72.31,10.98-.84,19.38,2.88,31.22,2.28,86.8-4.56,163.19-88.09,182.42-168.8,1.95-8.22,2.49-16.77,4.77-24.86v-41.9l-3.9-21.41ZM530.95,1563.01c-29.24-12.72-57.8-72.1-65.92-101.71-2.85-10.44-8.49-54.59-14.67-59.06-3.69-2.67-10.68-.96-15.21-1.26-2.34,15.09-3.3,30.11-1.35,45.26,1.29,9.96,8.16,24.23,2.7,31.97-22.13,31.37-118.56,86.56-137.43,28.97-23.24-71.05,71.17-164.57,123.99-201.34,22.19-15.48,64.15-40.82,91.54-32.78,25.55,7.5,37.04,43.01,31.58,66.97-13.14,2.1-43.82,5.46-52.49,16.17-4.77,5.94-2.37,16.47,5.85,17.25,14.01,1.32,32.39-13.35,49.67-2.07,12.57,8.16,17.94,34.88,18.84,49.07,1.89,29.27-13.14,12.36-21.68,27.38-7.08,12.45.96,25.64,14.13,27.86,38.9,6.54,75.94-17.46,109.56-32.75l40.04,69.61,1.23,6.09c-.6,3.66-12.69,10.35-16.47,12.54-38.96,22.55-121.17,50.42-163.91,31.82ZM932.26,1686.82c-.72,1.2-22.58,9.87-25.88,10.95-59.78,19.74-115.68,5.82-171.53-17.76-4.14-1.74-26.42-15.78-27.95-8.16-1.62,8.25,23.75,29.33,23.15,31.7-30.17,23.39-87.19,63.35-126.81,50.18-13.77-4.59-25.34-17.79-25.04-32.72.66-34.94,53.12-87.64,79.69-108.27,24.92-19.38,53.57-34.88,85.15-39.89-2.37,5.91,5.88,13.77,5.49,17.85-.57,6.03-20.31,19.47-3.12,28.19,16.59,8.46,27.26-15.27,40.34-15.81,8.22-.33,33.53,18.3,43.55,23,12.66,6,26.54,9.48,39.08,15.84,20.4,10.35,40.97,25.88,61.13,37.19,2.43,1.11,4.11,5.58,2.76,7.71ZM1360.71,1676.41c-381.45,82.54-770.13-236.7-723.01-632.88,1.44-12.33,4.17-24.62,5.67-36.95,3.9-.6,7.32-.12,11.1,1.05,16.92,5.16,39.62,28.61,54.95,31.82,7.41,1.53,9.24-3.9,9.09-10.62-.15-7.08-25.88-43.61-31.88-50.45-58.76-67.06-182.75-32.93-252.51-1.02-8.82,4.02-45.59,21.24-45.29,31.34,29.66,38.06,25.55,118.26-3.75,155.15-17.43,21.95-48.8,34.19-45.41-7.8,2.13-26,23.51-41.78,20.1-66.37-4.8-34.55-57.86-4.44-74.05,5.22-42.89,25.58-61.16,57.26-96.4,87.16-28.16,23.84-59.75,26.03-48.77-21.26,13.32-57.44,70.45-76.72,112.32-108.81l1.47-6.48c-7.56.69-16.47-.93-23.84,0-41.45,5.22-93.7,50.66-112.8,86.65-3.39,6.39-12.3,32.9-17.64,34.49-8.97,2.67-22.43-12.54-25.73-20.01-19.53-44.39,37.79-95.56,70.54-117.36,7.98-5.31,37.31-18.51,37.34-27.83.03-8.07-12.36-7.02-18.06-6.33-18.33,2.13-65.5,30.14-80.29,42.56-8.4,7.08-17.16,22.34-23.9,26.69-1.8,1.14-2.88,1.77-5.13,1.38-7.89-67.33,71.98-87.07,118.59-111.96,40.61-21.68,60.92-42.83,111.99-38.27,14.67,1.29,40.7,14.58,52.88,10.86,52.25-33.2,102.97-70.54,164.12-85.93,62.09-15.6,149.81-16.29,201.61,26.6,10.71,8.85,35.87,39.77,47.33,42.32,2.97.66,6.06.33,9.06.33-4.32-23.36-24.11-50.66-42.65-65.02-11.58-8.94-31.19-11.4-22.67-29.87,8.01-17.4,26.51-42.65,38.12-58.7,251.34-347.35,793.49-300.05,1001.97,65.92,190.81,334.93,3.18,772.71-374.46,854.38ZM2187.46,846.9c11.88,4.2,26.6,14.13,31.79,25.88-38.24,14.88-64.96,45.77-87.31,78.94l-15.33,31.67c-.6-7.17.84-15.42,0-22.4-2.16-18.21-15.06-37.85-24.29-53.21,16.68-37.34,49.34-77.05,95.14-60.89ZM2043.64,828.85c20.37-16.32,57.68-28.16,79.48-8.7.81.72,2.82,1.89,1.47,2.88-24.38,13.41-42.68,36.35-52.91,62.03l-49.82-23c-4.65-7.38,16.08-28.64,21.77-33.2ZM2153.48,1145.18c-25.52,1.47-51.59-12.87-75.16-10.08-4.41.51-10.86,1.41-9.18,7.02,8.82,5.31,20.34,15.3,13.44,26.12-5.61,8.85-31.55,27.08-41.3,33.86-59.21,41.27-129.63,67.93-202.24,71.68l16.2-100.84c38.15-12.9,78.55-27.5,111.48-51.14,8.34-5.97,36.47-29.33,38.33-38.36,3.09-14.82-21.11-27.5-30.14-37.19-30.59-32.75-51.92-98.47-21.62-137.25,41.45-53.03,128.1,3.9,132.96,59.24,3.9,44.21-27.83,45.2-58.76,26.93-7.11-4.17-40.7-34.94-46.76-29.12,5.19,45.47,62.6,80.74,105.55,65.02l-11.55,56.33c7.14,1.56,13.02-5.79,17.31-10.89,9.18-10.92,17.31-26.63,23.18-39.68,2.76-1.98,18.6,18.87,22.4,21.65,48.59,35.9,118.38-26.87,114.93-79.45-5.76-5.97-31.7,32.3-35.39,36.17-15.45,16.11-44.27,34.04-64.39,15.15-20.1-18.84-1.86-56.9,11.01-75.73,27.98-41.06,91.69-90.22,123.75-24.23,41.27,84.97-41.99,209.5-134.04,214.78Z"/>
  <path class="cls-2" d="M193.26,1485.1c3.47-.44,8.41-1.38,11.34.92,7.67,14-11.69,26.4-21.79,33.41-40.68,28.22-105.16,63.83-150.62,83.55-5.4,2.34-39.75,17.91-30.68,1.13,6.32-11.7,66.17-49.84,80.89-59.31,23.07-14.85,86.65-56.66,110.86-59.7Z"/>
  <path class="cls-2" d="M243.85,1337.7c7.93-1.15,15.94.08,12.75,9.85-8.29,25.37-108.4,74.21-134.81,89.24-7.13,4.06-32.8,22.16-38.59,21.56-3.71-.39-7.86-4.33-6.03-8.28.79-1.7,15.4-15.68,18.1-18.11,15.05-13.54,34.93-27.7,51.62-39.44,19.81-13.95,75.21-51.68,96.96-54.83Z"/>
  <path class="cls-1" d="M230.48,1045.52c-41.46,5.21-93.71,50.67-112.8,86.66-3.39,6.39-12.29,32.89-17.63,34.47-8.97,2.67-22.43-12.52-25.73-20-19.55-44.4,37.77-95.57,70.52-117.35,7.99-5.31,37.31-18.5,37.35-27.85.03-8.06-12.37-7-18.07-6.33-18.31,2.15-65.5,30.16-80.28,42.57-8.41,7.06-17.15,22.35-23.91,26.68-1.78,1.14-2.88,1.79-5.12,1.38-7.88-67.31,71.98-87.06,118.58-111.94,40.61-21.68,60.93-42.85,112-38.29,14.68,1.31,40.68,14.59,52.87,10.87,52.27-33.21,102.97-70.54,164.14-85.92,62.08-15.61,149.8-16.29,201.61,26.61,10.69,8.85,35.86,39.75,47.3,42.31,2.98.67,6.06.32,9.06.32-4.3-23.35-24.1-50.64-42.65-65.01-11.56-8.95-31.18-11.4-22.67-29.88,8.02-17.4,26.51-42.67,38.12-58.71,251.36-347.34,793.48-300.04,1001.97,65.94,190.8,334.93,3.17,772.68-374.46,854.38-381.45,82.52-770.12-236.72-723.03-632.9,1.47-12.33,4.17-24.62,5.68-36.94,3.91-.6,7.33-.11,11.09,1.04,16.92,5.17,39.63,28.63,54.96,31.81,7.4,1.54,9.25-3.88,9.1-10.59-.16-7.09-25.88-43.62-31.89-50.48-58.76-67.06-182.75-32.93-252.52-1.02-8.8,4.02-45.59,21.25-45.27,31.36,29.65,38.05,25.53,118.25-3.76,155.15-17.43,21.96-48.82,34.2-45.4-7.8,2.11-26,23.5-41.77,20.09-66.35-4.8-34.58-57.88-4.44-74.06,5.21-42.88,25.57-61.15,57.26-96.41,87.15-28.14,23.85-59.73,26.03-48.76-21.27,13.32-57.44,70.45-76.72,112.33-108.81l1.48-6.47c-7.57.67-16.48-.93-23.86,0ZM1438.51,645.31c.27-11.5-11.33-19.51-19.78-25.73-12.91-9.49-30.53-20-46.72-20.49-1.13,7.91,4.51,10.15,9.67,14.17,8.26,6.43,39.94,27.42,48.54,30.96,2.78,1.15,5.34,1.34,8.3,1.09ZM1062.22,605.13c-11.2,2.23-4.82,17.19,6.91,16.92,14.18-.32,6.43-19.58-6.91-16.92ZM1049.39,636.48c3.01-5.2-17.22-19.4-22.64-21.09-22.03-6.86-31.46,17.57-11.61,24.6,11.57,4.1,23.74,2.37,34.25-3.51ZM1480.44,655.42c4.87-5.1-20.5-28.9-26.09-30.98-2.43-.91-4.61-1.04-7.16-.79-5.28,10.27,29.67,35.51,33.24,31.78ZM915.1,651.09c-2.01-1.99-28.66,8.56-22.43,18.8,5.87,9.64,28.3-7.52,22.43-18.8ZM854,704.85c-5.55,1.12-21.39,13.36-21.27,19.24.24,11.58,25.98.88,28.59-11.94,1.34-6.56-.75-8.63-7.31-7.31ZM1265.01,823.02c-16.89-1.75-48.32,16.34-62.17,26.01,3.84-6.04,11.08-16.55-2.13-16.01-12.86.52-37.98,35.52-44.38,46.82-17.29,30.51-29,79.26-20.76,113.71,1.28,5.34,13.1,30.72,10.88,33.18-3.27-.21-4.11-2.45-7.86-2.96-7.51-1.03-35.83-.91-43.12.42-9.04,1.64-19.06,14.05-8.95,16.94,22.79,6.52,49.42,6.64,73.57,13.18,50.62,13.69,79.17,36.39,121.25,63.77,5.79,3.77,34.75,23.17,40.07,18.45-.1-5.1-9.54-15.56-6.97-19.96,54.26-29.73,84.95-93.81,79.28-154.85,64.52,32.49,101.42-49.48,73.44-100.13-1.43-2.59-11.84-19.14-15.61-15.45.03,3.21,1.39,6.07,1.51,9.32.58,16.86,3.97,48.34-10.11,59.37-11.55,9.06-22.76-9.56-29.59-18.25-14.89-18.94-26.72-40.48-42.04-59.13-35.84-43.62-144.81-128.02-201.02-132.88-14.34-1.24-27.9-.19-36.61,12.5-26.56,38.71,20.41,43.38,44.96,52.84,16.17,6.23,33.32,16.46,48.09,25.63,13.03,8.09,26.89,17.41,38.29,27.48ZM806.66,765.24c-11.75-4.15-36.6,34.11-31.81,39l9.97-.17c-1.68-8.64,27.06-33.61,21.84-38.83ZM1497.8,955.94c-8.92,24.51,5.37,57.29,7.23,82.35-15.44,1.75-51.3,18.87-45.55,39.01,5.47,11.2,30.17-5.42,37.94-6.88,23.89-4.52,37.26,17.94,34.92,39.23-2.9,26.41-35.81,33.39-55.29,42.99-9.54,4.7-11.65,6.76-1.65,14.23,19.13,14.28,59.08.79,73.75-15.87,4.83-5.48,8.15-15.58,13.78-19.46,11.01-7.6,35.81-9.78,50.99-18.39,80.56-45.71,100.25-183.91,27.71-245.29-5.49-4.65-18.32-10.85-21.71-14.42-1.53-1.6-2.43-2.71-2.2-5.1,0-1.91,1.14-2.5,2.44-3.49,14.67-11.21,74.34-26.75,51.76-56.38-13.1-17.19-37-12.27-54.48-5.56-45.64,17.52-138.15,103.82-134.06,156.39.8,10.32,4.63,14.27,14.44,16.64ZM848.59,779.69c-4.02-.46-6.69.14-10.05,2.23-7.77,4.83-26.41,36.3-28.34,45.36-1.12,5.26-2.36,15.87,5.25,12.22l33.13-59.8ZM852.93,825.91c-10.71-4.01-20.58,27.1-17.35,30.35l9.99-.15c1.93-10.22,8.42-19.37,7.36-30.2ZM1128.8,1110.95c-35.01,3.71-56.34,33.25-67.69,63.84-36.23,97.64,23.08,214.68,115.18,256.26,152.58,68.9,275.99-35.24,333.07-170.99,20.35-7.95,73.58-7.82,79.19-35,2.1-10.17-2.39-11.89-12.04-12-25.14-.29-53.99,11.46-79.38,13.12-61.48,4-145.65-20.09-201.3-46.05-47.87-22.33-112.93-74.91-167.04-69.18ZM688.11,1204.45l-2.8-35.5c-1.07-.74-3.77-1-5.03-.72-3.55.8-10.43,43.58,7.83,36.22ZM703.93,1234.83c-18.28-.66-5.45,33.16-1.78,42.97,3.3,8.83,8.22,19.03,19.2,17.64l-17.42-60.62ZM1730.08,1314.42c-9.51.82-23.91,34.13-13.19,41.72,6.78,1.55,17.56-32.23,16.63-38.24-.28-1.85-1.19-3.93-3.44-3.48ZM750.27,1330.14c-17.49-1.76-19.57,19.56-5.06,26.06,6.91.09,1.55-20.89,5.06-26.06ZM782.23,1346.18c-3.07,1.93.04,13.63.89,16.87,4,15.18,26.83,61.86,42.29,66.12,3.27.9,6.75,1.55,7.14-2.78-11.01-15.06-23.03-29.85-31.47-46.61-3.03-6.02-10.86-30.41-12.47-32.32-1.33-1.58-4.94-2.18-6.38-1.28ZM796.54,1422.59l-26.98-54.66-6.27-.24c-.46,19.32,12.41,50.88,33.25,54.9ZM900.48,1475.88c.66-11.03-7.37-26.72-20.08-24.39-4.14,4.13,10.42,31.54,20.08,24.39ZM1610.57,1464.5c-2.54-.51-3.57,1.3-5.08,2.86-5.02,5.19-23.08,26.8-23.63,32.78-.58,6.34,8.85,1.54,11.56-.05,11.91-7,18.88-21.96,17.14-35.59ZM1533.54,1500.88c-13.79,3.01-30.02,32.78-5.85,21.65,12.09-5.56,21.16-24.99,5.85-21.65ZM1441.4,1564.18c9.64,2.88,40.8-10.79,32.59-23.17-1.52-2.04-3.19-1.43-5.17-.77-2.92.98-25.73,16.22-26.7,18.16-.94,1.86-.82,3.8-.72,5.78ZM1377.78,1571.41c-4.47-1.36-30.05,4.29-28.91,9.36,2,8.89,30.87,2.98,28.91-9.36ZM1149.33,1617.66c-15.77-7.07-33.2-10.37-50.6-10.13,1.57,16.96,25.07,16.97,38.13,15.71,1.54-.15,15.73-2.11,12.46-5.58ZM1231.74,1607.53c-11.83,2.78-24.52,3.5-35.83,8.24-16.87,7.08-3.23,11.75,8.94,10.37,8.63-.97,27.84-7.71,26.89-18.62ZM1289.58,1617.65l-75.55,20.21c-5.39,5.56-.79,12.74,6.64,12.55,8.78-.23,39.08-11.09,48.21-15.16,3.76-1.68,26.3-11.86,20.7-17.59Z"/>
  <path class="cls-1" d="M1980.73,966.06c5.18,45.47,62.58,80.74,105.54,65.01l-11.55,56.33c7.14,1.58,13.02-5.79,17.3-10.87,9.21-10.92,17.32-26.65,23.2-39.68,2.76-1.99,18.6,18.86,22.39,21.67,48.6,35.88,118.41-26.89,114.94-79.45-5.75-5.99-31.69,32.3-35.38,36.15-15.46,16.12-44.28,34.04-64.4,15.16-20.08-18.84-1.85-56.89,11-75.74,27.98-41.04,91.71-90.21,123.76-24.24,41.27,84.98-42,209.52-134.03,214.79-25.53,1.46-51.6-12.87-75.17-10.09-4.42.52-10.86,1.42-9.19,7.03,8.83,5.32,20.35,15.29,13.46,26.13-5.62,8.84-31.57,27.08-41.29,33.86-59.21,41.26-129.66,67.92-202.26,71.66l16.2-100.81c38.16-12.91,78.55-27.51,111.49-51.14,8.34-5.98,36.48-29.33,38.34-38.36,3.07-14.82-21.13-27.52-30.16-37.19-30.6-32.78-51.91-98.48-21.62-137.26,41.44-53.04,128.1,3.89,132.96,59.22,3.88,44.2-27.85,45.2-58.78,26.95-7.1-4.19-40.69-34.94-46.74-29.13Z"/>
  <path class="cls-1" d="M546.2,1340.04c-13.14,2.09-43.84,5.45-52.49,16.18-4.78,5.93-2.37,16.45,5.83,17.24,14.01,1.33,32.38-13.33,49.68-2.08,12.56,8.17,17.93,34.89,18.84,49.07,1.88,29.27-13.16,12.36-21.7,27.39-7.07,12.44.95,25.65,14.12,27.87,38.9,6.54,75.94-17.46,109.56-32.75l40.05,69.61,1.21,6.07c-.6,3.66-12.68,10.37-16.46,12.56-38.96,22.55-121.17,50.42-163.91,31.81-29.23-12.72-57.79-72.09-65.92-101.72-2.86-10.41-8.48-54.58-14.66-59.03-3.71-2.67-10.7-.96-15.22-1.25-2.32,15.07-3.28,30.1-1.34,45.25,1.27,9.94,8.17,24.22,2.7,31.97-22.13,31.38-118.57,86.56-137.43,28.97-23.27-71.06,71.17-164.56,123.97-201.35,22.2-15.47,64.16-40.81,91.55-32.78,25.55,7.5,37.06,43.01,31.6,66.98Z"/>
  <path class="cls-1" d="M743.04,1572.84c-2.37,5.92,5.87,13.78,5.49,17.85-.57,6.04-20.31,19.45-3.13,28.2,16.6,8.45,27.27-15.27,40.33-15.81,8.24-.34,33.55,18.3,43.55,23.01,12.67,5.97,26.57,9.47,39.1,15.83,20.39,10.34,40.96,25.89,61.11,37.18,2.44,1.12,4.11,5.58,2.78,7.7-.75,1.19-22.59,9.86-25.89,10.95-59.77,19.75-115.68,5.81-171.53-17.75-4.13-1.74-26.43-15.78-27.94-8.15-1.64,8.23,23.73,29.32,23.13,31.7-30.17,23.4-87.19,63.33-126.8,50.17-13.75-4.57-25.35-17.78-25.06-32.72.68-34.93,53.15-87.63,79.71-108.28,24.92-19.36,53.56-34.88,85.15-39.89Z"/>
  <path class="cls-1" d="M2116.63,961c-2.16-18.2-15.06-37.87-24.31-53.21,16.69-37.36,49.35-77.07,95.13-60.9,11.89,4.2,26.61,14.13,31.81,25.89-38.24,14.89-64.96,45.77-87.33,78.94l-15.3,31.67c-.6-7.15.83-15.41,0-22.39Z"/>
  <path class="cls-1" d="M2071.69,885.05l-49.82-23c-4.64-7.38,16.07-28.65,21.78-33.22,20.36-16.3,57.66-28.16,79.47-8.68.81.72,2.83,1.88,1.49,2.88-24.4,13.39-42.69,36.36-52.91,62.02Z"/>
  <path class="cls-2" d="M1128.8,1110.95c54.11-5.73,119.17,46.85,167.04,69.18,55.65,25.96,139.82,50.05,201.3,46.05,25.39-1.65,54.24-13.4,79.38-13.12,9.64.11,14.13,1.83,12.04,12-5.6,27.18-58.84,27.05-79.19,35-57.09,135.76-180.49,239.89-333.07,170.99-92.1-41.59-151.41-158.63-115.18-256.26,11.35-30.59,32.68-60.13,67.69-63.84ZM1447.18,1249.23c-55.6-4.59-113.5-21.09-163.9-45-25.28-11.99-49.27-28.25-75.14-39.06-6.28-2.62-12.78-5.97-19.77-5.52,11.16,66.84,68.35,108.51,131.56,122.09,24.32,5.22,73.32,9.78,96.2.74,12.49-4.93,26.3-20.66,31.04-33.26ZM1260.71,1373.46c-12.07-77.06-97.87-143.64-176.19-115.32-1.86,10.11,2.55,19.54,6.3,28.61,27.69,66.91,78.44,114.72,152.17,125.34,12.23,1.76,57.8,4.35,66.76-1.84,6.09-4.21,2.24-22.48.48-29.23-5.3-20.3-20.06-48.11-36.54-61,5.27,19.15-2.64,35.46-7.34,53.37l-5.65.07Z"/>
  <path class="cls-2" d="M1265.01,823.02c-11.39-10.08-25.26-19.39-38.29-27.48-14.77-9.17-31.92-19.4-48.09-25.63-24.56-9.46-71.53-14.13-44.96-52.84,8.71-12.69,22.27-13.73,36.61-12.5,56.21,4.85,165.18,89.25,201.02,132.88,15.32,18.65,27.15,40.19,42.04,59.13,6.84,8.69,18.04,27.31,29.59,18.25,14.08-11.03,10.69-42.51,10.11-59.37-.11-3.25-1.48-6.1-1.51-9.32,3.77-3.7,14.18,12.86,15.61,15.45,27.98,50.65-8.92,132.62-73.44,100.13,5.67,61.04-25.02,125.11-79.28,154.85-2.58,4.4,6.87,14.86,6.97,19.96-5.33,4.71-34.28-14.68-40.07-18.45-42.08-27.39-70.63-50.08-121.25-63.77-24.15-6.53-50.78-6.66-73.57-13.18-10.11-2.89-.09-15.3,8.95-16.94,7.29-1.33,35.61-1.45,43.12-.42,3.75.52,4.59,2.76,7.86,2.96,2.22-2.46-9.61-27.83-10.88-33.18-8.24-34.45,3.48-83.2,20.76-113.71,6.4-11.3,31.52-46.3,44.38-46.82,13.21-.54,5.97,9.97,2.13,16.01-4.38,6.87-9.75,11.75-14.18,18.33-26.6,39.56-34.73,106.78-15.43,150.67,9.87,22.45,20.43,19.14,40.09,26.4,30.04,11.1,53.6,29.62,79.12,48.12,8.89,2.75,23.36-7.68,30.26-13.24,1.87-1.51,10.23-7.29,8.82-9.22-25.99-9.72-44.33-33.07-48.76-60.37-7.46-45.92,25.18-121.55,81.31-88.47,1.99-3.85-1.72-10-3.86-13.48-12.9-20.95-67.83-70.43-89.53-82.5-2.04-1.14-3.11-2-5.66-2.26Z"/>
  <path class="cls-2" d="M1505.02,1038.29c5.42-.62,13.73.61,19.12,1.85,29.65,6.79,43.82,36.15,44.51,64.61,6.66-.75,41.89-17.53,41.89-22.39-38.12-17.16-51.23-55.47-47.66-95.33,4.94-55.22,53.2-70.32,90.36-31.1,3.17.61,2.14-1.45,2.21-3.64.67-21.98-28.14-74.06-45.85-87.12-2.34-1.73-8.77-6.04-11.34-5.96-2.21.07-24.43,15.44-28.05,18.12-19.28,14.29-64.52,56.91-72.42,78.61-9.81-2.36-13.64-6.32-14.44-16.64-4.09-52.58,88.42-138.88,134.06-156.39,17.47-6.71,41.38-11.63,54.48,5.56,22.58,29.63-37.09,45.17-51.76,56.38-1.3.99-2.44,1.57-2.44,3.49-.23,2.39.68,3.5,2.2,5.1,3.4,3.56,16.22,9.77,21.71,14.42,72.54,61.37,52.85,199.58-27.71,245.29-15.19,8.62-39.98,10.8-50.99,18.39-5.62,3.88-8.95,13.98-13.78,19.46-14.67,16.66-54.62,30.15-73.75,15.87-10-7.46-7.89-9.53,1.65-14.23,19.47-9.59,52.39-16.57,55.29-42.99,2.34-21.29-11.03-43.75-34.92-39.23-7.76,1.47-32.46,18.09-37.94,6.88-5.74-20.14,30.11-37.26,45.55-39.01Z"/>
  <path class="cls-4" d="M1265.01,823.02c2.54.26,3.61,1.12,5.66,2.26,21.7,12.06,76.63,61.55,89.53,82.5,2.14,3.48,5.85,9.63,3.86,13.48-56.13-33.08-88.76,42.55-81.31,88.47,4.43,27.3,22.77,50.65,48.76,60.37,1.41,1.93-6.95,7.71-8.82,9.22-6.9,5.57-21.37,15.99-30.26,13.24-25.52-18.5-49.08-37.03-79.12-48.12-19.66-7.26-30.22-3.95-40.09-26.4-19.3-43.89-11.17-111.12,15.43-150.67,4.43-6.59,9.81-11.46,14.18-18.33,13.85-9.66,45.28-27.75,62.17-26.01Z"/>
  <path class="cls-3" d="M1497.8,955.94c7.9-21.7,53.14-64.32,72.42-78.61,3.62-2.68,25.84-18.05,28.05-18.12,2.57-.08,8.99,4.23,11.34,5.96,17.71,13.06,46.52,65.14,45.85,87.12-.07,2.18.96,4.24-2.21,3.64-37.16-39.22-85.42-24.12-90.36,31.1-3.57,39.86,9.54,78.17,47.66,95.33,0,4.86-35.23,21.64-41.89,22.39-.69-28.47-14.86-57.82-44.51-64.61-5.39-1.24-13.69-2.46-19.12-1.85-1.86-25.06-16.15-57.84-7.23-82.35Z"/>
  <g>
    <path class="cls-2" d="M1480.44,655.42c-3.57,3.73-38.52-21.51-33.24-31.78,2.54-.25,4.72-.12,7.16.79,5.59,2.09,30.96,25.89,26.09,30.98Z"/>
    <g>
      <path class="cls-2" d="M1438.51,645.31c-2.95.26-5.52.06-8.3-1.09-8.6-3.55-40.28-24.53-48.54-30.96-5.16-4.02-10.8-6.26-9.67-14.17,16.19.49,33.82,10.99,46.72,20.49,8.45,6.22,20.05,14.23,19.78,25.73Z"/>
      <path class="cls-2" d="M1049.39,636.48c-10.51,5.89-22.68,7.61-34.25,3.51-19.85-7.02-10.42-31.46,11.61-24.6,5.41,1.69,25.65,15.88,22.64,21.09Z"/>
      <path class="cls-2" d="M848.59,779.69l-33.13,59.8c-7.61,3.65-6.37-6.96-5.25-12.22,1.93-9.06,20.57-40.53,28.34-45.36,3.35-2.08,6.03-2.68,10.05-2.23Z"/>
      <path class="cls-2" d="M806.66,765.24c5.23,5.22-23.52,30.19-21.84,38.83l-9.97.17c-4.79-4.89,20.05-43.15,31.81-39Z"/>
      <path class="cls-2" d="M854,704.85c6.56-1.33,8.65.75,7.31,7.31-2.61,12.82-28.35,23.52-28.59,11.94-.12-5.88,15.72-18.12,21.27-19.24Z"/>
      <path class="cls-2" d="M852.93,825.91c1.06,10.83-5.43,19.97-7.36,30.2l-9.99.15c-3.23-3.25,6.64-34.35,17.35-30.35Z"/>
      <path class="cls-2" d="M915.1,651.09c5.88,11.28-16.56,28.45-22.43,18.8-6.23-10.24,20.42-20.79,22.43-18.8Z"/>
      <path class="cls-2" d="M1062.22,605.13c13.34-2.66,21.09,16.6,6.91,16.92-11.73.26-18.11-14.69-6.91-16.92Z"/>
      <g>
        <path class="cls-2" d="M782.23,1346.18c1.44-.9,5.05-.3,6.38,1.28,1.61,1.91,9.44,26.3,12.47,32.32,8.44,16.76,20.47,31.55,31.47,46.61-.39,4.34-3.86,3.68-7.14,2.78-15.46-4.26-38.29-50.94-42.29-66.12-.85-3.24-3.96-14.94-.89-16.87Z"/>
        <path class="cls-2" d="M1289.58,1617.65c5.6,5.73-16.93,15.91-20.7,17.59-9.13,4.07-39.43,14.93-48.21,15.16-7.43.2-12.04-6.98-6.64-12.55l75.55-20.21Z"/>
        <path class="cls-2" d="M703.93,1234.83l17.42,60.62c-10.98,1.39-15.9-8.81-19.2-17.64-3.67-9.82-16.5-43.63,1.78-42.97Z"/>
        <path class="cls-2" d="M796.54,1422.59c-20.83-4.02-33.71-35.58-33.25-54.9l6.27.24,26.98,54.66Z"/>
        <path class="cls-2" d="M1149.33,1617.66c3.26,3.46-10.92,5.43-12.46,5.58-13.06,1.27-36.56,1.25-38.13-15.71,17.39-.24,34.82,3.05,50.6,10.13Z"/>
        <path class="cls-2" d="M1730.08,1314.42c2.26-.46,3.16,1.63,3.44,3.48.93,6.02-9.85,39.8-16.63,38.24-10.72-7.59,3.68-40.9,13.19-41.72Z"/>
        <path class="cls-2" d="M1610.57,1464.5c1.74,13.63-5.23,28.6-17.14,35.59-2.71,1.59-12.14,6.39-11.56.05.54-5.99,18.61-27.59,23.63-32.78,1.51-1.56,2.54-3.37,5.08-2.86Z"/>
        <path class="cls-2" d="M1231.74,1607.53c.95,10.91-18.26,17.65-26.89,18.62-12.17,1.37-25.81-3.29-8.94-10.37,11.3-4.75,23.99-5.46,35.83-8.24Z"/>
        <path class="cls-2" d="M1441.4,1564.18c-.1-1.99-.22-3.92.72-5.78.97-1.94,23.78-17.18,26.7-18.16,1.98-.66,3.65-1.27,5.17.77,8.21,12.38-22.95,26.05-32.59,23.17Z"/>
        <path class="cls-2" d="M1533.54,1500.88c15.3-3.34,6.24,16.08-5.85,21.65-24.17,11.13-7.94-18.64,5.85-21.65Z"/>
        <path class="cls-2" d="M688.11,1204.45c-18.25,7.36-11.38-35.41-7.83-36.22,1.26-.29,3.96-.03,5.03.72l2.8,35.5Z"/>
        <path class="cls-2" d="M900.48,1475.88c-9.66,7.15-24.23-20.26-20.08-24.39,12.72-2.33,20.75,13.36,20.08,24.39Z"/>
        <path class="cls-2" d="M750.27,1330.14c-3.51,5.17,1.85,26.14-5.06,26.06-14.51-6.49-12.43-27.82,5.06-26.06Z"/>
        <path class="cls-2" d="M1377.78,1571.41c1.96,12.35-26.91,18.26-28.91,9.36-1.14-5.07,24.43-10.72,28.91-9.36Z"/>
      </g>
    </g>
  </g>
  <path class="cls-1" d="M1260.71,1373.46l5.65-.07c4.7-17.91,12.61-34.22,7.34-53.37,16.48,12.88,31.24,40.7,36.54,61,1.76,6.75,5.61,25.02-.48,29.23-8.96,6.19-54.53,3.61-66.76,1.84-73.73-10.62-124.47-58.44-152.17-125.34-3.75-9.07-8.16-18.49-6.3-28.61,78.31-28.32,164.11,38.26,176.19,115.32Z"/>
  <path class="cls-3" d="M1447.18,1249.23c-4.75,12.6-18.55,28.32-31.04,33.26-22.88,9.03-71.88,4.48-96.2-.74-63.21-13.57-120.4-55.24-131.56-122.09,6.99-.45,13.49,2.9,19.77,5.52,25.87,10.8,49.85,27.06,75.14,39.06,50.4,23.91,108.3,40.41,163.9,45Z"/>
</svg>