<?xml version="1.0" encoding="utf-8"?>
<svg version="1.1" id="Layer_1" xmlns="http://www.w3.org/2000/svg" xmlns:xlink="http://www.w3.org/1999/xlink" x="0px" y="0px"
  viewBox="0 0 358.5 101.6" style="enable-background:new 0 0 358.5 101.6;" xml:space="preserve">
    <style type="text/css">
    .st0{clipPath:url(#SVGID_2_);fill:#E30613;}
    .st1{clipPath:url(#SVGID_2_);fill:#3AAA35;}
    .st2{clipPath:url(#SVGID_2_);fill:#36A9E1;}
    </style>
    <g>
    <defs>
        <rect id="SVGID_1_" y="0" width="358.5" height="101.6"/>
    </defs>
    <clipPath id="SVGID_2_">
        <use xlink:href="#SVGID_1_"  style="overflow:visible;"/>
    </clipPath>
    <path class="st0" d="M255.3,36.5l-2.9,8.9c2.7,0.1,4.9,1.1,6.3,2.8c2,2.2,2.6,4.6,2.6,14.7c0,10-0.6,12.5-2.6,14.7
        c-1.5,1.7-3.7,2.8-6.5,2.8c-2.8,0-5.1-1.1-6.6-2.8c-1.1-1.2-1.8-2.5-2.1-5.2l-4.2,12.5c3.4,2.9,7.6,4.6,12.9,4.6
        c5.9,0,10.4-2.1,14.1-5.7c5.3-5.3,5.2-11.8,5.2-20.8c0-9,0.1-15.5-5.2-20.8C263.2,39,259.7,37.1,255.3,36.5"/>
    <path class="st0" d="M297.5,53.9c-3.5,0-6.5,1.3-7.8,2.6V45.3h21.1v-8.6H281v29.5h8.7c0.7-2.1,2.4-4.3,6.3-4.3
        c4.6,0,6.4,3.4,6.4,9.4c0,3.3-0.4,6.1-2.1,7.8c-1.2,1.2-2.7,1.7-4.5,1.7c-4,0-5.9-2.3-6.4-6.5h-9.5c0.3,3.8,1,7.6,4.3,10.8
        c2.3,2.3,6.2,4.2,11.7,4.2c5.4,0,9.2-1.9,11.5-4.3c3.8-3.8,4.6-7.9,4.6-13.8c0-4.9-0.6-9.8-4.7-13.9
        C305.2,55.3,301.9,53.9,297.5,53.9"/>
    <path class="st0" d="M353.3,42c-3.7-3.7-8.1-5.7-14.1-5.7c-5.9,0-10.5,2.1-14.2,5.7c-5.3,5.3-5.1,11.8-5.1,20.8
        c0,9-0.1,15.5,5.1,20.8c3.7,3.7,8.2,5.7,14.2,5.7c5.9,0,10.4-2.1,14.1-5.7c5.3-5.3,5.2-11.8,5.2-20.8
        C358.5,53.8,358.5,47.3,353.3,42 M345.7,77.5c-1.5,1.7-3.7,2.8-6.5,2.8c-2.8,0-5.1-1.1-6.6-2.8c-2-2.2-2.5-4.6-2.5-14.7
        c0-10,0.5-12.5,2.5-14.7c1.5-1.7,3.8-2.8,6.6-2.8c2.8,0,5.1,1.1,6.5,2.8c2,2.2,2.6,4.6,2.6,14.7C348.3,72.9,347.7,75.3,345.7,77.5"
        />
    <path class="st1" d="M16.6,75.4c-7.9,0-13.3-1.7-16.6-6.9l9-6.6c2.1,3.3,6.2,4.4,11,4.4c6,0,10.1-2.3,11.6-6.5
        c0.7-1.8,0.7-3.4,0-4.4c-0.7-1-1.7-1.5-4-1.8l-6-0.9c-4.2-0.7-7-2.1-8.5-4.3c-1.6-2.5-1.6-5.9,0-10.3c3.4-9.3,12.7-15.8,23.9-15.8
        c7.2,0,11.8,1.8,14.6,6.1l-8.8,6.4c-2.2-3.2-6-3.6-9.4-3.6c-5.4,0-9.2,3-10.5,6.6c-0.5,1.3-0.6,2.7,0.2,3.7c0.7,1,2.1,1.8,4.1,2.1
        l5.8,0.9c4.5,0.7,7.1,2,8.5,4c1.8,2.6,1.7,6.5,0,11.1C38,69.7,27.5,75.4,16.6,75.4"/>
    <path class="st1" d="M73.1,55.3H63L55.9,75H45.7l19-52.2h20.2c10.8,0,14.5,7.4,11.3,16.3C93,47.9,83.8,55.3,73.1,55.3 M81.1,31.8
        h-9.5l-5.2,14.3h9.5c4.6,0,8.6-2.9,10.1-7.1C87.6,34.8,85.7,31.8,81.1,31.8"/>
    <path class="st1" d="M125.2,69.7c-5,3.7-10.2,5.7-16.2,5.7c-5.9,0-9.7-2.1-12.1-5.7c-3.4-5.3-0.8-11.8,2.4-20.8
        c3.3-9,5.5-15.5,12.7-20.8c5-3.7,10.3-5.7,16.2-5.7c5.9,0,9.7,2.1,12,5.7c3.4,5.3,0.9,11.8-2.4,20.8
        C134.7,57.9,132.4,64.4,125.2,69.7 M130.6,34.2c-0.9-1.7-2.7-2.8-5.5-2.8c-2.8,0-5.5,1.1-7.6,2.8c-2.8,2.2-4.2,4.6-7.8,14.7
        c-3.7,10-4,12.5-2.8,14.7c0.9,1.7,2.8,2.8,5.6,2.8c2.8,0,5.5-1.1,7.5-2.8c2.8-2.2,4.2-4.6,7.9-14.7
        C131.5,38.8,131.8,36.4,130.6,34.2"/>
    <path class="st1" d="M166.6,75L164,54.1h-7.3L149.1,75h-10.2l19-52.2h20.5c10.6,0,14.3,7.3,11.1,16c-2.7,7.3-8.8,11.9-14.5,13.7
        l3.5,22.5H166.6z M174.4,31.8h-9.6l-5,13.8h9.6c4.5,0,8.4-2.9,9.9-6.9C180.8,34.7,178.9,31.8,174.4,31.8"/>
    <polygon class="st1" points="200.5,22.7 197.2,31.8 210.8,31.8 195.1,75 205.3,75 221,31.8 227.3,31.8 230.3,22.7 	"/>
    <polygon class="st2" points="222.8,101.6 213.9,101.6 248.2,0 257.2,0 	"/>
    </g>
</svg>